<mxfile host="app.diagrams.net" modified="2020-06-20T11:22:47.240Z" agent="5.0 (Macintosh; Intel Mac OS X 10_15_5) AppleWebKit/605.1.15 (KHTML, like Gecko) Version/13.1.1 Safari/605.1.15" etag="MN4q3X53b50MQr8lzj4v" version="13.3.0" type="github">
  <diagram name="Page-1" id="c4acf3e9-155e-7222-9cf6-157b1a14988f">
    <mxGraphModel dx="1350" dy="817" grid="1" gridSize="10" guides="1" tooltips="1" connect="1" arrows="1" fold="1" page="1" pageScale="1" pageWidth="850" pageHeight="1100" background="#ffffff" math="0" shadow="0">
      <root>
        <mxCell id="0" />
        <mxCell id="1" parent="0" />
        <mxCell id="_zbEI8j1RnfakeMwb99n-57" value="&#xa;" style="text;strokeColor=none;fillColor=none;align=left;verticalAlign=top;spacingLeft=4;spacingRight=4;overflow=hidden;rotatable=0;points=[[0,0.5],[1,0.5]];portConstraint=eastwest;" parent="1" vertex="1">
          <mxGeometry x="725" y="450" width="200" height="26" as="geometry" />
        </mxCell>
        <mxCell id="_zbEI8j1RnfakeMwb99n-30" value="Member " style="swimlane;fontStyle=1;align=center;verticalAlign=top;childLayout=stackLayout;horizontal=1;startSize=26;horizontalStack=0;resizeParent=1;resizeParentMax=0;resizeLast=0;collapsible=1;marginBottom=0;" parent="1" vertex="1">
          <mxGeometry x="75" y="40" width="170" height="114" as="geometry" />
        </mxCell>
        <mxCell id="_zbEI8j1RnfakeMwb99n-31" value="+ Material: Material Class&#xa;" style="text;strokeColor=none;fillColor=none;align=left;verticalAlign=top;spacingLeft=4;spacingRight=4;overflow=hidden;rotatable=0;points=[[0,0.5],[1,0.5]];portConstraint=eastwest;" parent="_zbEI8j1RnfakeMwb99n-30" vertex="1">
          <mxGeometry y="26" width="170" height="26" as="geometry" />
        </mxCell>
        <mxCell id="_zbEI8j1RnfakeMwb99n-45" value="+ Geometric: Geometric Class&#xa;" style="text;strokeColor=none;fillColor=none;align=left;verticalAlign=top;spacingLeft=4;spacingRight=4;overflow=hidden;rotatable=0;points=[[0,0.5],[1,0.5]];portConstraint=eastwest;" parent="_zbEI8j1RnfakeMwb99n-30" vertex="1">
          <mxGeometry y="52" width="170" height="28" as="geometry" />
        </mxCell>
        <mxCell id="_zbEI8j1RnfakeMwb99n-32" value="" style="line;strokeWidth=1;fillColor=none;align=left;verticalAlign=middle;spacingTop=-1;spacingLeft=3;spacingRight=3;rotatable=0;labelPosition=right;points=[];portConstraint=eastwest;" parent="_zbEI8j1RnfakeMwb99n-30" vertex="1">
          <mxGeometry y="80" width="170" height="8" as="geometry" />
        </mxCell>
        <mxCell id="_zbEI8j1RnfakeMwb99n-33" value="+ method(type): type" style="text;strokeColor=none;fillColor=none;align=left;verticalAlign=top;spacingLeft=4;spacingRight=4;overflow=hidden;rotatable=0;points=[[0,0.5],[1,0.5]];portConstraint=eastwest;" parent="_zbEI8j1RnfakeMwb99n-30" vertex="1">
          <mxGeometry y="88" width="170" height="26" as="geometry" />
        </mxCell>
        <mxCell id="_zbEI8j1RnfakeMwb99n-40" value="Material " style="swimlane;fontStyle=1;align=center;verticalAlign=top;childLayout=stackLayout;horizontal=1;startSize=26;horizontalStack=0;resizeParent=1;resizeParentMax=0;resizeLast=0;collapsible=1;marginBottom=0;" parent="1" vertex="1">
          <mxGeometry x="75" y="200" width="300" height="130" as="geometry" />
        </mxCell>
        <mxCell id="_zbEI8j1RnfakeMwb99n-41" value="+ elastic_modulus : ElasticModulus Class" style="text;strokeColor=none;fillColor=none;align=left;verticalAlign=top;spacingLeft=4;spacingRight=4;overflow=hidden;rotatable=0;points=[[0,0.5],[1,0.5]];portConstraint=eastwest;" parent="_zbEI8j1RnfakeMwb99n-40" vertex="1">
          <mxGeometry y="26" width="300" height="26" as="geometry" />
        </mxCell>
        <mxCell id="_zbEI8j1RnfakeMwb99n-47" value="+ shear_modulus : ShearModulus Class" style="text;strokeColor=none;fillColor=none;align=left;verticalAlign=top;spacingLeft=4;spacingRight=4;overflow=hidden;rotatable=0;points=[[0,0.5],[1,0.5]];portConstraint=eastwest;" parent="_zbEI8j1RnfakeMwb99n-40" vertex="1">
          <mxGeometry y="52" width="300" height="26" as="geometry" />
        </mxCell>
        <mxCell id="_zbEI8j1RnfakeMwb99n-48" value="+ material_strength : MaterialStrength Class" style="text;strokeColor=none;fillColor=none;align=left;verticalAlign=top;spacingLeft=4;spacingRight=4;overflow=hidden;rotatable=0;points=[[0,0.5],[1,0.5]];portConstraint=eastwest;" parent="_zbEI8j1RnfakeMwb99n-40" vertex="1">
          <mxGeometry y="78" width="300" height="26" as="geometry" />
        </mxCell>
        <mxCell id="_zbEI8j1RnfakeMwb99n-50" value="+ isotropy: Bool&#xa;&#xa;" style="text;strokeColor=none;fillColor=none;align=left;verticalAlign=top;spacingLeft=4;spacingRight=4;overflow=hidden;rotatable=0;points=[[0,0.5],[1,0.5]];portConstraint=eastwest;" parent="_zbEI8j1RnfakeMwb99n-40" vertex="1">
          <mxGeometry y="104" width="300" height="26" as="geometry" />
        </mxCell>
        <mxCell id="_zbEI8j1RnfakeMwb99n-51" value="Geometric" style="swimlane;fontStyle=1;align=center;verticalAlign=top;childLayout=stackLayout;horizontal=1;startSize=26;horizontalStack=0;resizeParent=1;resizeParentMax=0;resizeLast=0;collapsible=1;marginBottom=0;" parent="1" vertex="1">
          <mxGeometry x="75" y="359" width="350" height="208" as="geometry" />
        </mxCell>
        <mxCell id="_zbEI8j1RnfakeMwb99n-52" value="+ Cross_Sectional_Area : Area Class" style="text;strokeColor=none;fillColor=none;align=left;verticalAlign=top;spacingLeft=4;spacingRight=4;overflow=hidden;rotatable=0;points=[[0,0.5],[1,0.5]];portConstraint=eastwest;" parent="_zbEI8j1RnfakeMwb99n-51" vertex="1">
          <mxGeometry y="26" width="350" height="26" as="geometry" />
        </mxCell>
        <mxCell id="_zbEI8j1RnfakeMwb99n-53" value="+ polar_moment_of_inertia : PolarMomentOfInertia Class" style="text;strokeColor=none;fillColor=none;align=left;verticalAlign=top;spacingLeft=4;spacingRight=4;overflow=hidden;rotatable=0;points=[[0,0.5],[1,0.5]];portConstraint=eastwest;" parent="_zbEI8j1RnfakeMwb99n-51" vertex="1">
          <mxGeometry y="52" width="350" height="26" as="geometry" />
        </mxCell>
        <mxCell id="_zbEI8j1RnfakeMwb99n-54" value="+ length : Number" style="text;strokeColor=none;fillColor=none;align=left;verticalAlign=top;spacingLeft=4;spacingRight=4;overflow=hidden;rotatable=0;points=[[0,0.5],[1,0.5]];portConstraint=eastwest;" parent="_zbEI8j1RnfakeMwb99n-51" vertex="1">
          <mxGeometry y="78" width="350" height="26" as="geometry" />
        </mxCell>
        <mxCell id="_zbEI8j1RnfakeMwb99n-55" value="+ first moment of area : FirstMomentOfArea Class" style="text;strokeColor=none;fillColor=none;align=left;verticalAlign=top;spacingLeft=4;spacingRight=4;overflow=hidden;rotatable=0;points=[[0,0.5],[1,0.5]];portConstraint=eastwest;" parent="_zbEI8j1RnfakeMwb99n-51" vertex="1">
          <mxGeometry y="104" width="350" height="26" as="geometry" />
        </mxCell>
        <mxCell id="_zbEI8j1RnfakeMwb99n-59" value="+ second moment of area : SecondMomentOfArea Class" style="text;strokeColor=none;fillColor=none;align=left;verticalAlign=top;spacingLeft=4;spacingRight=4;overflow=hidden;rotatable=0;points=[[0,0.5],[1,0.5]];portConstraint=eastwest;" parent="_zbEI8j1RnfakeMwb99n-51" vertex="1">
          <mxGeometry y="130" width="350" height="26" as="geometry" />
        </mxCell>
        <mxCell id="_zbEI8j1RnfakeMwb99n-63" value="+ radius_of_gyration : RadiusOfGyration Class" style="text;strokeColor=none;fillColor=none;align=left;verticalAlign=top;spacingLeft=4;spacingRight=4;overflow=hidden;rotatable=0;points=[[0,0.5],[1,0.5]];portConstraint=eastwest;" parent="_zbEI8j1RnfakeMwb99n-51" vertex="1">
          <mxGeometry y="156" width="350" height="26" as="geometry" />
        </mxCell>
        <mxCell id="_zbEI8j1RnfakeMwb99n-62" value="+ shape_type : ShapeType Class" style="text;strokeColor=none;fillColor=none;align=left;verticalAlign=top;spacingLeft=4;spacingRight=4;overflow=hidden;rotatable=0;points=[[0,0.5],[1,0.5]];portConstraint=eastwest;" parent="_zbEI8j1RnfakeMwb99n-51" vertex="1">
          <mxGeometry y="182" width="350" height="26" as="geometry" />
        </mxCell>
        <mxCell id="_zbEI8j1RnfakeMwb99n-64" value="MemberReaction" style="swimlane;fontStyle=1;align=center;verticalAlign=top;childLayout=stackLayout;horizontal=1;startSize=26;horizontalStack=0;resizeParent=1;resizeParentMax=0;resizeLast=0;collapsible=1;marginBottom=0;" parent="1" vertex="1">
          <mxGeometry x="75" y="600" width="300" height="136" as="geometry" />
        </mxCell>
        <mxCell id="_zbEI8j1RnfakeMwb99n-65" value="+ ShearReaction : ShearReaction Class&#xa;" style="text;strokeColor=none;fillColor=none;align=left;verticalAlign=top;spacingLeft=4;spacingRight=4;overflow=hidden;rotatable=0;points=[[0,0.5],[1,0.5]];portConstraint=eastwest;" parent="_zbEI8j1RnfakeMwb99n-64" vertex="1">
          <mxGeometry y="26" width="300" height="26" as="geometry" />
        </mxCell>
        <mxCell id="_zbEI8j1RnfakeMwb99n-76" value="+MomentReaction : MomentReaction Class&#xa;" style="text;strokeColor=none;fillColor=none;align=left;verticalAlign=top;spacingLeft=4;spacingRight=4;overflow=hidden;rotatable=0;points=[[0,0.5],[1,0.5]];portConstraint=eastwest;" parent="_zbEI8j1RnfakeMwb99n-64" vertex="1">
          <mxGeometry y="52" width="300" height="26" as="geometry" />
        </mxCell>
        <mxCell id="_zbEI8j1RnfakeMwb99n-77" value="+ NormalForceReaction : NormalForceReaction Class&#xa;" style="text;strokeColor=none;fillColor=none;align=left;verticalAlign=top;spacingLeft=4;spacingRight=4;overflow=hidden;rotatable=0;points=[[0,0.5],[1,0.5]];portConstraint=eastwest;" parent="_zbEI8j1RnfakeMwb99n-64" vertex="1">
          <mxGeometry y="78" width="300" height="24" as="geometry" />
        </mxCell>
        <mxCell id="_zbEI8j1RnfakeMwb99n-67" value="" style="line;strokeWidth=1;fillColor=none;align=left;verticalAlign=middle;spacingTop=-1;spacingLeft=3;spacingRight=3;rotatable=0;labelPosition=right;points=[];portConstraint=eastwest;" parent="_zbEI8j1RnfakeMwb99n-64" vertex="1">
          <mxGeometry y="102" width="300" height="8" as="geometry" />
        </mxCell>
        <mxCell id="_zbEI8j1RnfakeMwb99n-68" value="+ method(type): type" style="text;strokeColor=none;fillColor=none;align=left;verticalAlign=top;spacingLeft=4;spacingRight=4;overflow=hidden;rotatable=0;points=[[0,0.5],[1,0.5]];portConstraint=eastwest;" parent="_zbEI8j1RnfakeMwb99n-64" vertex="1">
          <mxGeometry y="110" width="300" height="26" as="geometry" />
        </mxCell>
        <mxCell id="SzBSRjnE7hd-IW8ygLib-5" value="Designer" style="swimlane;fontStyle=1;align=center;verticalAlign=top;childLayout=stackLayout;horizontal=1;startSize=26;horizontalStack=0;resizeParent=1;resizeParentMax=0;resizeLast=0;collapsible=1;marginBottom=0;" vertex="1" parent="1">
          <mxGeometry x="600" y="40" width="300" height="136" as="geometry" />
        </mxCell>
        <mxCell id="SzBSRjnE7hd-IW8ygLib-6" value="+ member_reaction : MemberReaction Class" style="text;strokeColor=none;fillColor=none;align=left;verticalAlign=top;spacingLeft=4;spacingRight=4;overflow=hidden;rotatable=0;points=[[0,0.5],[1,0.5]];portConstraint=eastwest;" vertex="1" parent="SzBSRjnE7hd-IW8ygLib-5">
          <mxGeometry y="26" width="300" height="26" as="geometry" />
        </mxCell>
        <mxCell id="SzBSRjnE7hd-IW8ygLib-7" value="+ design_standard : DesignStandard Class&#xa;" style="text;strokeColor=none;fillColor=none;align=left;verticalAlign=top;spacingLeft=4;spacingRight=4;overflow=hidden;rotatable=0;points=[[0,0.5],[1,0.5]];portConstraint=eastwest;" vertex="1" parent="SzBSRjnE7hd-IW8ygLib-5">
          <mxGeometry y="52" width="300" height="26" as="geometry" />
        </mxCell>
        <mxCell id="SzBSRjnE7hd-IW8ygLib-8" value="+ member : Member Class&#xa;" style="text;strokeColor=none;fillColor=none;align=left;verticalAlign=top;spacingLeft=4;spacingRight=4;overflow=hidden;rotatable=0;points=[[0,0.5],[1,0.5]];portConstraint=eastwest;" vertex="1" parent="SzBSRjnE7hd-IW8ygLib-5">
          <mxGeometry y="78" width="300" height="24" as="geometry" />
        </mxCell>
        <mxCell id="SzBSRjnE7hd-IW8ygLib-9" value="" style="line;strokeWidth=1;fillColor=none;align=left;verticalAlign=middle;spacingTop=-1;spacingLeft=3;spacingRight=3;rotatable=0;labelPosition=right;points=[];portConstraint=eastwest;" vertex="1" parent="SzBSRjnE7hd-IW8ygLib-5">
          <mxGeometry y="102" width="300" height="8" as="geometry" />
        </mxCell>
        <mxCell id="SzBSRjnE7hd-IW8ygLib-10" value="+ method(type): type" style="text;strokeColor=none;fillColor=none;align=left;verticalAlign=top;spacingLeft=4;spacingRight=4;overflow=hidden;rotatable=0;points=[[0,0.5],[1,0.5]];portConstraint=eastwest;" vertex="1" parent="SzBSRjnE7hd-IW8ygLib-5">
          <mxGeometry y="110" width="300" height="26" as="geometry" />
        </mxCell>
        <mxCell id="_zbEI8j1RnfakeMwb99n-69" value="DesignStandardClass" style="swimlane;fontStyle=1;align=center;verticalAlign=top;childLayout=stackLayout;horizontal=1;startSize=26;horizontalStack=0;resizeParent=1;resizeParentMax=0;resizeLast=0;collapsible=1;marginBottom=0;" parent="1" vertex="1">
          <mxGeometry x="75" y="800" width="370" height="200" as="geometry" />
        </mxCell>
        <mxCell id="_zbEI8j1RnfakeMwb99n-70" value="+ design_critiria : DesignCritiria Class&#xa;" style="text;strokeColor=none;fillColor=none;align=left;verticalAlign=top;spacingLeft=4;spacingRight=4;overflow=hidden;rotatable=0;points=[[0,0.5],[1,0.5]];portConstraint=eastwest;" parent="_zbEI8j1RnfakeMwb99n-69" vertex="1">
          <mxGeometry y="26" width="370" height="26" as="geometry" />
        </mxCell>
        <mxCell id="_zbEI8j1RnfakeMwb99n-79" value="+ servicebility_check: ServicebilityCheck Class&#xa;&#xa;" style="text;strokeColor=none;fillColor=none;align=left;verticalAlign=top;spacingLeft=4;spacingRight=4;overflow=hidden;rotatable=0;points=[[0,0.5],[1,0.5]];portConstraint=eastwest;" parent="_zbEI8j1RnfakeMwb99n-69" vertex="1">
          <mxGeometry y="52" width="370" height="30" as="geometry" />
        </mxCell>
        <mxCell id="_zbEI8j1RnfakeMwb99n-81" value="+ load_combination: LoadCombination Class&#xa;" style="text;strokeColor=none;fillColor=none;align=left;verticalAlign=top;spacingLeft=4;spacingRight=4;overflow=hidden;rotatable=0;points=[[0,0.5],[1,0.5]];portConstraint=eastwest;" parent="_zbEI8j1RnfakeMwb99n-69" vertex="1">
          <mxGeometry y="82" width="370" height="28" as="geometry" />
        </mxCell>
        <mxCell id="_zbEI8j1RnfakeMwb99n-80" value="+ material_reduction : MaterialReduction Class&#xa;" style="text;strokeColor=none;fillColor=none;align=left;verticalAlign=top;spacingLeft=4;spacingRight=4;overflow=hidden;rotatable=0;points=[[0,0.5],[1,0.5]];portConstraint=eastwest;" parent="_zbEI8j1RnfakeMwb99n-69" vertex="1">
          <mxGeometry y="110" width="370" height="28" as="geometry" />
        </mxCell>
        <mxCell id="_zbEI8j1RnfakeMwb99n-71" value="+ capacity_reduction_factors: CapacityReductionFactors Class&#xa;" style="text;strokeColor=none;fillColor=none;align=left;verticalAlign=top;spacingLeft=4;spacingRight=4;overflow=hidden;rotatable=0;points=[[0,0.5],[1,0.5]];portConstraint=eastwest;" parent="_zbEI8j1RnfakeMwb99n-69" vertex="1">
          <mxGeometry y="138" width="370" height="28" as="geometry" />
        </mxCell>
        <mxCell id="_zbEI8j1RnfakeMwb99n-72" value="" style="line;strokeWidth=1;fillColor=none;align=left;verticalAlign=middle;spacingTop=-1;spacingLeft=3;spacingRight=3;rotatable=0;labelPosition=right;points=[];portConstraint=eastwest;" parent="_zbEI8j1RnfakeMwb99n-69" vertex="1">
          <mxGeometry y="166" width="370" height="8" as="geometry" />
        </mxCell>
        <mxCell id="_zbEI8j1RnfakeMwb99n-73" value="+ method(type): type" style="text;strokeColor=none;fillColor=none;align=left;verticalAlign=top;spacingLeft=4;spacingRight=4;overflow=hidden;rotatable=0;points=[[0,0.5],[1,0.5]];portConstraint=eastwest;" parent="_zbEI8j1RnfakeMwb99n-69" vertex="1">
          <mxGeometry y="174" width="370" height="26" as="geometry" />
        </mxCell>
      </root>
    </mxGraphModel>
  </diagram>
</mxfile>
